<?xml version="1.0" encoding="UTF-8"?>
<svg id="Calque_1" xmlns="http://www.w3.org/2000/svg" version="1.1" viewBox="0 0 124.85 170.34">
  <!-- Generator: Adobe Illustrator 29.7.0, SVG Export Plug-In . SVG Version: 2.1.1 Build 138)  -->
  <defs>
    <style>
      .st0 {
        fill: none;
        stroke: #000;
        stroke-linecap: round;
        stroke-linejoin: round;
        stroke-width: 7px;
      }
    </style>
  </defs>
  <circle class="st0" cx="77.34" cy="92.9" r="12.23"/>
  <path class="st0" d="M102.75,105.05l-34.21,58.92c-2.22,3.82-8.73,3.82-10.94,0l-12.48-21.49c6.26-.53,11.18-5.78,11.18-12.18,0-6.75-5.48-12.23-12.23-12.23-4.17,0-7.85,2.09-10.06,5.28l-24.06-41.45s21.35-15.58,53.12-15.58c26.52,0,40.91,8.27,40.91,8.27,0,0,9.37,3.91,13.41-2.97,3.5-5.96-4.28-11.47-4.28-11.47,0,0-12.27-10.55-48.71-10.55S3.5,67.46,3.5,67.46l7-39.72,27.46,10.75S62.43,3.5,62.43,3.5l24.46,35,27.46-10.75,7,20.07"/>
</svg>