<?xml version="1.0" encoding="UTF-8"?>
<svg xmlns="http://www.w3.org/2000/svg" version="1.1" viewBox="0 0 160 160">
  <!-- Generator: Adobe Illustrator 29.7.0, SVG Export Plug-In . SVG Version: 2.1.1 Build 138)  -->
  <defs>
    <style>
      .st0 {
        fill: #f4d68c;
      }

      .st1 {
        fill: #fcf2a9;
      }

      .st2 {
        fill: #442500;
      }

      .st3 {
        fill: #e0bd5a;
      }

      .st4 {
        fill: #7f6221;
      }
    </style>
  </defs>
  <g id="Calque_1">
    <circle class="st4" cx="83" cy="83" r="74.26"/>
    <circle class="st3" cx="80" cy="80" r="74.26"/>
    <path class="st1" d="M8.74,83C8.74,41.99,41.99,8.74,83,8.74c19.74,0,37.67,7.72,50.97,20.29-13.54-14.33-32.7-23.29-53.97-23.29C38.99,5.74,5.74,38.99,5.74,80c0,21.27,8.96,40.44,23.29,53.97-12.57-13.3-20.29-31.23-20.29-50.97Z"/>
  </g>
  <g id="Calque_2">
    <g>
      <path class="st0" d="M27.46,132.27L115.33,16.13c-9.77-4.73-20.74-7.39-32.33-7.39-3.72,0-7.38.28-10.96.81L9.35,92.4c1.92,15.2,8.43,28.96,18.1,39.86Z"/>
      <path class="st0" d="M45.13,19.13L11.22,63.95c-1.61,6.08-2.48,12.47-2.48,19.05,0,.75.03,1.48.06,2.22L64.99,10.95c-7.08,1.76-13.75,4.54-19.86,8.17Z"/>
      <path class="st0" d="M62.29,152.12l82.29-108.76c-4.67-8.21-10.85-15.44-18.18-21.31l-89.56,118.37c7.55,5.4,16.15,9.43,25.44,11.7Z"/>
      <path class="st0" d="M154.26,80c0-.4-.02-.8-.03-1.2l-55.23,73c31.81-8.39,55.26-37.35,55.26-71.8Z"/>
    </g>
    <g>
      <path class="st2" d="M89.14,94.23c-5.23,0-9.49-4.26-9.49-9.49s4.26-9.49,9.49-9.49,9.49,4.26,9.49,9.49-4.26,9.49-9.49,9.49ZM89.14,79.24c-3.03,0-5.49,2.46-5.49,5.49s2.46,5.49,5.49,5.49,5.49-2.46,5.49-5.49-2.46-5.49-5.49-5.49Z"/>
      <path class="st2" d="M80.4,132.03c-2.15,0-4.1-1.05-5.08-2.75l-7.65-13.17c-.34-.59-.36-1.32-.04-1.93s.92-1.01,1.6-1.07c2.81-.24,5.02-2.64,5.02-5.47,0-3.03-2.46-5.49-5.49-5.49-1.8,0-3.49.89-4.52,2.37-.39.56-1.03.88-1.72.86-.68-.03-1.31-.4-1.65-.99l-14.74-25.39c-.51-.89-.28-2.02.55-2.62.56-.41,13.83-9.93,33.72-9.93,15.68,0,24.66,4.57,25.92,5.25.61.23,4.19,1.44,5.64-1.02,1.18-2.02-2.03-4.36-2.06-4.39-.05-.03-.1-.07-.14-.11-.06-.05-7.47-5.98-28.54-5.98s-35.99,10.46-36.14,10.56c-.66.48-1.55.51-2.24.08-.69-.43-1.05-1.24-.91-2.04l4.29-24.33c.1-.59.47-1.1.99-1.4.52-.29,1.15-.34,1.71-.12l15.36,6.01,14.08-20.15c.38-.54.99-.85,1.64-.85h0c.65,0,1.26.32,1.64.85l14.08,20.15,15.36-6.01c.51-.2,1.07-.18,1.57.05.49.23.87.65,1.05,1.16l4.29,12.3c.36,1.04-.19,2.18-1.23,2.55-1.04.36-2.18-.19-2.55-1.23l-3.6-10.34-14.89,5.83c-.86.34-1.84.04-2.37-.72l-13.35-19.1-13.35,19.1c-.53.76-1.51,1.05-2.37.72l-14.55-5.7-3.09,17.52c5.97-3.34,18.34-8.89,34.57-8.89,21.8,0,30.08,6.1,31.06,6.88,2.17,1.57,5.54,5.53,3.13,9.63-2.66,4.52-8.17,3.71-10.71,2.65-.08-.03-.15-.07-.23-.11-.08-.05-8.64-4.8-24.07-4.8s-25.97,5.83-29.86,8.19l12.46,21.46c1.63-1.25,3.65-1.95,5.75-1.95,5.23,0,9.49,4.26,9.49,9.49,0,3.87-2.39,7.27-5.8,8.73l6.32,10.89c.33.56,1.05.76,1.62.76s1.3-.2,1.62-.76l20.96-36.1c.55-.95,1.78-1.28,2.73-.73.96.55,1.28,1.78.73,2.73l-20.96,36.1c-.98,1.7-2.93,2.75-5.08,2.75h0Z"/>
    </g>
  </g>
</svg>