<?xml version="1.0" encoding="UTF-8"?>
<svg id="Calque_1" xmlns="http://www.w3.org/2000/svg" version="1.1" viewBox="0 0 266.77 67.32">
  <!-- Generator: Adobe Illustrator 29.7.0, SVG Export Plug-In . SVG Version: 2.1.1 Build 138)  -->
  <defs>
    <style>
      .st0 {
        fill: none;
        stroke: #000;
        stroke-width: 2px;
      }
    </style>
  </defs>
  <path class="st0" d="M17.46,1l15.36,46.37L48.01,1h15.92l-24.75,65.32h-12.7L1.45,1h16.01Z"/>
  <path class="st0" d="M69.99,66.32V1h29.44c3.07,0,5.9.64,8.51,1.93,2.61,1.29,4.86,2.98,6.76,5.06,1.9,2.09,3.39,4.45,4.46,7.08,1.07,2.64,1.61,5.31,1.61,8,0,2.02-.25,3.97-.74,5.84-.49,1.87-1.2,3.63-2.12,5.29-.92,1.66-2.04,3.14-3.36,4.46-1.32,1.32-2.81,2.44-4.46,3.36l14.35,24.29h-17.02l-12.51-21.07h-9.84v21.07h-15.09ZM85.08,32.1h13.8c1.78,0,3.31-.84,4.6-2.53,1.29-1.69,1.93-3.85,1.93-6.49s-.74-4.84-2.21-6.44c-1.47-1.59-3.07-2.39-4.78-2.39h-13.34v17.85Z"/>
  <path class="st0" d="M148.38,1h13.62l23.83,65.32h-15.46l-5.06-14.63h-20.33l-4.97,14.63h-15.46L148.38,1ZM162.82,41.3l-7.64-23.09-7.82,23.09h15.46Z"/>
  <path class="st0" d="M192.26,66.32V1h15.09v65.32h-15.09Z"/>
  <path class="st0" d="M265.77,53.07v13.25h-45.91V1h45.08v13.25h-29.99v12.7h25.76v12.24h-25.76v13.89h30.82Z"/>
</svg>